<?xml version="1.0" standalone="no"?>
<!DOCTYPE svg PUBLIC "-//W3C//DTD SVG 20010904//EN"
 "http://www.w3.org/TR/2001/REC-SVG-20010904/DTD/svg10.dtd">
<svg version="1.0" xmlns="http://www.w3.org/2000/svg"
 width="512.000000pt" height="512.000000pt" viewBox="0 0 512.000000 512.000000"
 preserveAspectRatio="xMidYMid meet">
<metadata>
Created by potrace 1.14, written by Peter Selinger 2001-2017
</metadata>
<g transform="translate(0.000000,512.000000) scale(0.100000,-0.100000)"
fill="#000000" stroke="none">
<path d="M2937 4164 c-1 -1 -29 -5 -62 -8 -117 -12 -147 -17 -243 -42 -98 -26
-210 -70 -272 -109 -19 -12 -41 -25 -48 -29 -10 -6 -12 2 -7 38 6 56 3 57
-103 16 -82 -32 -195 -101 -259 -160 -226 -209 -347 -539 -352 -960 l-1 -65
-44 3 c-65 6 -108 -19 -141 -79 -30 -56 -40 -148 -25 -229 4 -25 11 -67 14
-95 4 -27 9 -57 11 -65 2 -8 7 -31 10 -50 15 -88 102 -199 185 -236 22 -10 40
-25 41 -33 0 -9 2 -23 4 -31 2 -8 6 -26 8 -40 23 -107 153 -498 163 -487 1 1
12 65 14 86 0 6 55 -67 106 -142 26 -37 45 -69 43 -71 -2 -2 -37 -11 -78 -20
-95 -22 -169 -58 -216 -106 -46 -47 -57 -91 -37 -143 8 -21 13 -39 11 -40 -2
-2 -33 -16 -68 -32 -160 -74 -286 -194 -375 -357 -39 -70 -81 -181 -90 -238
-3 -19 -8 -46 -11 -59 -4 -23 -16 -196 -19 -276 l-1 -40 1475 0 c1349 0 1475
1 1474 16 -1 9 -4 70 -8 135 -8 143 -11 167 -37 267 -61 242 -251 469 -465
558 -51 21 -51 22 -38 48 56 107 -45 212 -255 262 l-90 22 87 88 c95 95 107
97 99 14 -12 -112 32 -8 127 302 30 98 58 194 62 213 4 19 9 38 10 43 1 4 2
15 3 25 0 10 17 26 37 36 111 53 181 157 199 295 4 30 8 62 10 71 4 21 16 113
21 156 4 41 -19 136 -40 169 -30 45 -75 67 -130 62 l-48 -4 8 146 c10 195 8
403 -5 476 -30 165 -182 330 -396 431 l-57 27 33 26 c18 14 39 31 47 37 20 15
-125 46 -218 46 -39 0 -70 2 -70 5 0 2 14 30 30 63 17 33 29 60 28 61 -9 3
-48 5 -51 3z"/>
</g>
</svg>
